<mxfile host="Electron" modified="2023-05-19T08:59:37.285Z" agent="Mozilla/5.0 (X11; Linux x86_64) AppleWebKit/537.36 (KHTML, like Gecko) draw.io/21.2.8 Chrome/112.0.5615.165 Electron/24.2.0 Safari/537.36" etag="haHqHa3uv5YVvDz30ffC" version="21.2.8" type="device">
  <diagram id="KiB-AufaJ31jpKkaHcrA" name="Page-1">
    <mxGraphModel dx="5630" dy="5010" grid="1" gridSize="10" guides="1" tooltips="1" connect="1" arrows="1" fold="1" page="1" pageScale="1" pageWidth="850" pageHeight="1100" math="1" shadow="0">
      <root>
        <mxCell id="0" />
        <mxCell id="1" parent="0" />
        <mxCell id="-dQ5WDUZeD23r03v8ol0-2" value="" style="rounded=0;whiteSpace=wrap;html=1;fillColor=none;" parent="1" vertex="1">
          <mxGeometry x="-450" y="-2050" width="2150" height="1560" as="geometry" />
        </mxCell>
        <mxCell id="Nh_Gx2AoVbf9bdhYKGmF-39" value="&lt;font style=&quot;font-size: 50px;&quot;&gt;Unmovable&lt;br&gt;Obstacle&lt;/font&gt;" style="rounded=1;whiteSpace=wrap;html=1;strokeWidth=2;fillColor=#FF9933;" parent="1" vertex="1">
          <mxGeometry x="1160" y="-1520" width="390" height="940" as="geometry" />
        </mxCell>
        <mxCell id="Nh_Gx2AoVbf9bdhYKGmF-40" value="&lt;font style=&quot;font-size: 50px;&quot;&gt;Movable&lt;br&gt;Obstacle&lt;/font&gt;" style="ellipse;whiteSpace=wrap;html=1;aspect=fixed;fillColor=#fff2cc;strokeColor=#d6b656;" parent="1" vertex="1">
          <mxGeometry x="720" y="-1500" width="380" height="380" as="geometry" />
        </mxCell>
        <mxCell id="sVk9f4SAbp3rtPKEbEiQ-113" value="&lt;font style=&quot;font-size: 73px;&quot;&gt;Movable&lt;br&gt;Object&lt;br&gt;&lt;/font&gt;" style="ellipse;whiteSpace=wrap;html=1;aspect=fixed;fillColor=#FFD55E;" parent="1" vertex="1">
          <mxGeometry x="720" y="-1500" width="380" height="380" as="geometry" />
        </mxCell>
        <mxCell id="Nh_Gx2AoVbf9bdhYKGmF-1" value="&lt;font style=&quot;font-size: 73px;&quot;&gt;Unmovable&lt;br&gt;Object&lt;br&gt;&lt;/font&gt;" style="rounded=1;whiteSpace=wrap;html=1;strokeWidth=2;fillColor=#FF9933;" parent="1" vertex="1">
          <mxGeometry x="1160" y="-1520" width="390" height="940" as="geometry" />
        </mxCell>
        <mxCell id="sVk9f4SAbp3rtPKEbEiQ-73" value="" style="endArrow=classic;html=1;rounded=0;strokeWidth=9;" parent="1" edge="1">
          <mxGeometry width="50" height="50" relative="1" as="geometry">
            <mxPoint x="-182.02541666666667" y="-605.222816399287" as="sourcePoint" />
            <mxPoint x="-182.02541666666667" y="-756.524064171123" as="targetPoint" />
          </mxGeometry>
        </mxCell>
        <mxCell id="sVk9f4SAbp3rtPKEbEiQ-74" value="" style="endArrow=classic;html=1;rounded=0;strokeWidth=9;" parent="1" edge="1">
          <mxGeometry width="50" height="50" relative="1" as="geometry">
            <mxPoint x="-182.02541666666667" y="-605.222816399287" as="sourcePoint" />
            <mxPoint x="-20" y="-605" as="targetPoint" />
          </mxGeometry>
        </mxCell>
        <mxCell id="sVk9f4SAbp3rtPKEbEiQ-75" value="" style="endArrow=none;html=1;rounded=0;strokeWidth=9;" parent="1" edge="1">
          <mxGeometry width="50" height="50" relative="1" as="geometry">
            <mxPoint x="-108.89708333333334" y="-605.222816399287" as="sourcePoint" />
            <mxPoint x="-182.02541666666667" y="-680.873440285205" as="targetPoint" />
            <Array as="points">
              <mxPoint x="-182.02541666666667" y="-605.222816399287" />
            </Array>
          </mxGeometry>
        </mxCell>
        <mxCell id="sVk9f4SAbp3rtPKEbEiQ-76" value="&lt;font style=&quot;font-size: 50px;&quot;&gt;$$y$$&lt;/font&gt;" style="text;html=1;align=center;verticalAlign=middle;resizable=0;points=[];autosize=1;strokeColor=none;fillColor=none;strokeWidth=9;" parent="1" vertex="1">
          <mxGeometry x="-285" y="-833.9973440285205" width="160" height="70" as="geometry" />
        </mxCell>
        <mxCell id="sVk9f4SAbp3rtPKEbEiQ-80" value="&lt;font style=&quot;font-size: 50px;&quot;&gt;$$x$$&lt;/font&gt;" style="text;html=1;align=center;verticalAlign=middle;resizable=0;points=[];autosize=1;strokeColor=none;fillColor=none;strokeWidth=2;" parent="1" vertex="1">
          <mxGeometry x="-72.33708333333337" y="-658.6449197860962" width="160" height="70" as="geometry" />
        </mxCell>
        <mxCell id="Nh_Gx2AoVbf9bdhYKGmF-27" value="" style="endArrow=none;html=1;rounded=0;fontSize=41;strokeWidth=5;startArrow=none;exitX=0.35;exitY=-0.1;exitDx=0;exitDy=0;exitPerimeter=0;" parent="1" source="Nh_Gx2AoVbf9bdhYKGmF-76" edge="1">
          <mxGeometry width="50" height="50" relative="1" as="geometry">
            <mxPoint x="210" y="-1070" as="sourcePoint" />
            <mxPoint x="411.5431372549019" y="-794.0000000000005" as="targetPoint" />
          </mxGeometry>
        </mxCell>
        <mxCell id="Nh_Gx2AoVbf9bdhYKGmF-28" value="" style="endArrow=none;html=1;rounded=0;fontSize=41;strokeWidth=5;" parent="1" source="Nh_Gx2AoVbf9bdhYKGmF-48" target="Nh_Gx2AoVbf9bdhYKGmF-38" edge="1">
          <mxGeometry width="50" height="50" relative="1" as="geometry">
            <mxPoint x="945" y="-679.2700000000004" as="sourcePoint" />
            <mxPoint x="655" y="-710" as="targetPoint" />
            <Array as="points">
              <mxPoint x="690" y="-690" />
            </Array>
          </mxGeometry>
        </mxCell>
        <mxCell id="Nh_Gx2AoVbf9bdhYKGmF-29" value="" style="endArrow=none;html=1;rounded=0;fontSize=41;strokeWidth=5;exitX=0.333;exitY=0.533;exitDx=0;exitDy=0;exitPerimeter=0;" parent="1" source="Nh_Gx2AoVbf9bdhYKGmF-49" target="Nh_Gx2AoVbf9bdhYKGmF-38" edge="1">
          <mxGeometry width="50" height="50" relative="1" as="geometry">
            <mxPoint x="975" y="-649.2700000000004" as="sourcePoint" />
            <mxPoint x="685" y="-680" as="targetPoint" />
            <Array as="points" />
          </mxGeometry>
        </mxCell>
        <mxCell id="Nh_Gx2AoVbf9bdhYKGmF-30" value="" style="endArrow=none;html=1;rounded=0;fontSize=41;strokeWidth=5;startArrow=none;" parent="1" source="Nh_Gx2AoVbf9bdhYKGmF-43" target="Nh_Gx2AoVbf9bdhYKGmF-38" edge="1">
          <mxGeometry width="50" height="50" relative="1" as="geometry">
            <mxPoint x="200" y="-1080" as="sourcePoint" />
            <mxPoint x="-130" y="-1440" as="targetPoint" />
            <Array as="points">
              <mxPoint x="230" y="-960" />
            </Array>
          </mxGeometry>
        </mxCell>
        <mxCell id="Nh_Gx2AoVbf9bdhYKGmF-31" value="&lt;font style=&quot;&quot;&gt;&lt;font style=&quot;font-size: 73px;&quot;&gt;Target&lt;/font&gt;&lt;br&gt;&lt;/font&gt;" style="ellipse;whiteSpace=wrap;html=1;aspect=fixed;fillColor=none;strokeWidth=1;" parent="1" vertex="1">
          <mxGeometry x="1130.73" y="-1970" width="320" height="320" as="geometry" />
        </mxCell>
        <mxCell id="Nh_Gx2AoVbf9bdhYKGmF-32" value="" style="rounded=1;whiteSpace=wrap;html=1;rotation=-45;fillColor=#87CEEB;" parent="1" vertex="1">
          <mxGeometry x="1100" y="-1941.3400000000001" width="170.91" height="49.27" as="geometry" />
        </mxCell>
        <mxCell id="Nh_Gx2AoVbf9bdhYKGmF-33" value="" style="rounded=1;whiteSpace=wrap;html=1;rotation=-45;fillColor=#87CEEB;strokeColor=#56517e;gradientColor=none;" parent="1" vertex="1">
          <mxGeometry x="1309.82" y="-1730" width="170.91" height="49.27" as="geometry" />
        </mxCell>
        <mxCell id="Nh_Gx2AoVbf9bdhYKGmF-34" value="" style="group;rotation=15;fillColor=none;" parent="1" connectable="0" vertex="1">
          <mxGeometry x="236.6466655505108" y="-959.3533344494895" width="370.7058978173243" height="370.7058978173243" as="geometry" />
        </mxCell>
        <mxCell id="Nh_Gx2AoVbf9bdhYKGmF-35" value="&lt;font style=&quot;font-size: 41px;&quot;&gt;&lt;br&gt;&lt;/font&gt;" style="ellipse;whiteSpace=wrap;html=1;aspect=fixed;fillColor=#87CEEB;strokeColor=#56517e;strokeWidth=1;rotation=25;" parent="Nh_Gx2AoVbf9bdhYKGmF-34" vertex="1">
          <mxGeometry x="33.35" y="25.35" width="320" height="320" as="geometry" />
        </mxCell>
        <mxCell id="Nh_Gx2AoVbf9bdhYKGmF-36" value="" style="rounded=1;whiteSpace=wrap;html=1;rotation=15;fillColor=#1dacd6;" parent="Nh_Gx2AoVbf9bdhYKGmF-34" vertex="1">
          <mxGeometry x="140" y="14" width="170.91" height="49.27" as="geometry" />
        </mxCell>
        <mxCell id="Nh_Gx2AoVbf9bdhYKGmF-37" value="" style="rounded=1;whiteSpace=wrap;html=1;rotation=15;fillColor=#1dacd6;strokeColor=#56517e;gradientColor=none;" parent="Nh_Gx2AoVbf9bdhYKGmF-34" vertex="1">
          <mxGeometry x="63" y="303" width="170.91" height="49.27" as="geometry" />
        </mxCell>
        <mxCell id="Nh_Gx2AoVbf9bdhYKGmF-38" value="&lt;font style=&quot;font-size: 73px;&quot;&gt;Start&lt;/font&gt;" style="text;html=1;align=center;verticalAlign=middle;resizable=0;points=[];autosize=1;strokeColor=none;fillColor=none;fontSize=41;" parent="1" vertex="1">
          <mxGeometry x="333.45" y="-824" width="180" height="100" as="geometry" />
        </mxCell>
        <mxCell id="Nh_Gx2AoVbf9bdhYKGmF-41" value="" style="endArrow=none;html=1;rounded=0;fontSize=41;entryX=0.45;entryY=0.6;entryDx=0;entryDy=0;entryPerimeter=0;strokeWidth=5;" parent="1" source="Nh_Gx2AoVbf9bdhYKGmF-47" target="Nh_Gx2AoVbf9bdhYKGmF-53" edge="1">
          <mxGeometry width="50" height="50" relative="1" as="geometry">
            <mxPoint x="510" y="-1860" as="sourcePoint" />
            <mxPoint x="390" y="-1744.63" as="targetPoint" />
          </mxGeometry>
        </mxCell>
        <mxCell id="Nh_Gx2AoVbf9bdhYKGmF-42" value="" style="endArrow=none;html=1;rounded=0;fontSize=41;strokeWidth=5;" parent="1" target="Nh_Gx2AoVbf9bdhYKGmF-43" edge="1">
          <mxGeometry width="50" height="50" relative="1" as="geometry">
            <mxPoint x="200" y="-1080" as="sourcePoint" />
            <mxPoint x="401.5431372549019" y="-804" as="targetPoint" />
          </mxGeometry>
        </mxCell>
        <mxCell id="Nh_Gx2AoVbf9bdhYKGmF-43" value="" style="shape=waypoint;sketch=0;fillStyle=solid;size=6;pointerEvents=1;points=[];fillColor=none;resizable=0;rotatable=0;perimeter=centerPerimeter;snapToPoint=1;fontSize=41;strokeColor=#000000;strokeWidth=10;" parent="1" vertex="1">
          <mxGeometry x="180" y="-1100" width="40" height="40" as="geometry" />
        </mxCell>
        <mxCell id="Nh_Gx2AoVbf9bdhYKGmF-44" value="" style="shape=waypoint;sketch=0;fillStyle=solid;size=6;pointerEvents=1;points=[];fillColor=none;resizable=0;rotatable=0;perimeter=centerPerimeter;snapToPoint=1;fontSize=41;strokeColor=#000000;strokeWidth=10;" parent="1" vertex="1">
          <mxGeometry x="-110" y="-980" width="40" height="40" as="geometry" />
        </mxCell>
        <mxCell id="Nh_Gx2AoVbf9bdhYKGmF-45" value="" style="shape=waypoint;sketch=0;fillStyle=solid;size=6;pointerEvents=1;points=[];fillColor=none;resizable=0;rotatable=0;perimeter=centerPerimeter;snapToPoint=1;fontSize=41;strokeColor=#000000;strokeWidth=10;" parent="1" vertex="1">
          <mxGeometry x="40" y="-999.35" width="40" height="40" as="geometry" />
        </mxCell>
        <mxCell id="Nh_Gx2AoVbf9bdhYKGmF-46" value="" style="shape=waypoint;sketch=0;fillStyle=solid;size=6;pointerEvents=1;points=[];fillColor=none;resizable=0;rotatable=0;perimeter=centerPerimeter;snapToPoint=1;fontSize=41;strokeColor=#000000;strokeWidth=10;" parent="1" vertex="1">
          <mxGeometry x="950" y="-1740" width="40" height="40" as="geometry" />
        </mxCell>
        <mxCell id="Nh_Gx2AoVbf9bdhYKGmF-47" value="" style="shape=waypoint;sketch=0;fillStyle=solid;size=6;pointerEvents=1;points=[];fillColor=none;resizable=0;rotatable=0;perimeter=centerPerimeter;snapToPoint=1;fontSize=41;strokeColor=#000000;strokeWidth=10;" parent="1" vertex="1">
          <mxGeometry x="1600" y="-1981.34" width="40" height="40" as="geometry" />
        </mxCell>
        <mxCell id="Nh_Gx2AoVbf9bdhYKGmF-48" value="" style="shape=waypoint;sketch=0;fillStyle=solid;size=6;pointerEvents=1;points=[];fillColor=none;resizable=0;rotatable=0;perimeter=centerPerimeter;snapToPoint=1;fontSize=41;strokeColor=#000000;strokeWidth=10;" parent="1" vertex="1">
          <mxGeometry x="770" y="-616.83" width="40" height="40" as="geometry" />
        </mxCell>
        <mxCell id="Nh_Gx2AoVbf9bdhYKGmF-49" value="" style="shape=waypoint;sketch=0;fillStyle=solid;size=6;pointerEvents=1;points=[];fillColor=none;resizable=0;rotatable=0;perimeter=centerPerimeter;snapToPoint=1;fontSize=41;strokeColor=#000000;strokeWidth=10;" parent="1" vertex="1">
          <mxGeometry x="680" y="-870" width="40" height="40" as="geometry" />
        </mxCell>
        <mxCell id="Nh_Gx2AoVbf9bdhYKGmF-50" value="" style="shape=waypoint;sketch=0;fillStyle=solid;size=6;pointerEvents=1;points=[];fillColor=none;resizable=0;rotatable=0;perimeter=centerPerimeter;snapToPoint=1;fontSize=41;strokeColor=#000000;strokeWidth=10;" parent="1" vertex="1">
          <mxGeometry x="1050" y="-560" width="40" height="40" as="geometry" />
        </mxCell>
        <mxCell id="Nh_Gx2AoVbf9bdhYKGmF-51" value="" style="shape=waypoint;sketch=0;fillStyle=solid;size=6;pointerEvents=1;points=[];fillColor=none;resizable=0;rotatable=0;perimeter=centerPerimeter;snapToPoint=1;fontSize=41;strokeColor=#000000;strokeWidth=10;" parent="1" vertex="1">
          <mxGeometry x="930" y="-616.83" width="40" height="40" as="geometry" />
        </mxCell>
        <mxCell id="Nh_Gx2AoVbf9bdhYKGmF-52" value="" style="shape=waypoint;sketch=0;fillStyle=solid;size=6;pointerEvents=1;points=[];fillColor=none;resizable=0;rotatable=0;perimeter=centerPerimeter;snapToPoint=1;fontSize=41;strokeColor=#000000;strokeWidth=10;" parent="1" vertex="1">
          <mxGeometry x="1120" y="-1620" width="40" height="40" as="geometry" />
        </mxCell>
        <mxCell id="Nh_Gx2AoVbf9bdhYKGmF-53" value="" style="shape=waypoint;sketch=0;fillStyle=solid;size=6;pointerEvents=1;points=[];fillColor=none;resizable=0;rotatable=0;perimeter=centerPerimeter;snapToPoint=1;fontSize=41;strokeColor=#000000;strokeWidth=10;" parent="1" vertex="1">
          <mxGeometry x="1470" y="-1950" width="40" height="40" as="geometry" />
        </mxCell>
        <mxCell id="Nh_Gx2AoVbf9bdhYKGmF-54" value="" style="shape=waypoint;sketch=0;fillStyle=solid;size=6;pointerEvents=1;points=[];fillColor=none;resizable=0;rotatable=0;perimeter=centerPerimeter;snapToPoint=1;fontSize=41;strokeColor=#000000;strokeWidth=10;" parent="1" vertex="1">
          <mxGeometry x="1000" y="-1420" width="40" height="40" as="geometry" />
        </mxCell>
        <mxCell id="Nh_Gx2AoVbf9bdhYKGmF-55" value="" style="shape=waypoint;sketch=0;fillStyle=solid;size=6;pointerEvents=1;points=[];fillColor=none;resizable=0;rotatable=0;perimeter=centerPerimeter;snapToPoint=1;fontSize=41;strokeColor=#000000;strokeWidth=10;" parent="1" vertex="1">
          <mxGeometry x="1000" y="-1560" width="40" height="40" as="geometry" />
        </mxCell>
        <mxCell id="Nh_Gx2AoVbf9bdhYKGmF-56" value="" style="shape=waypoint;sketch=0;fillStyle=solid;size=6;pointerEvents=1;points=[];fillColor=none;resizable=0;rotatable=0;perimeter=centerPerimeter;snapToPoint=1;fontSize=41;strokeColor=#000000;strokeWidth=10;" parent="1" vertex="1">
          <mxGeometry x="180" y="-1380" width="40" height="40" as="geometry" />
        </mxCell>
        <mxCell id="Nh_Gx2AoVbf9bdhYKGmF-57" value="" style="endArrow=none;html=1;rounded=0;fontSize=41;strokeWidth=5;startArrow=none;exitX=0;exitY=0.05;exitDx=0;exitDy=0;exitPerimeter=0;" parent="1" source="Nh_Gx2AoVbf9bdhYKGmF-52" target="Nh_Gx2AoVbf9bdhYKGmF-31" edge="1">
          <mxGeometry width="50" height="50" relative="1" as="geometry">
            <mxPoint x="210" y="-1070" as="sourcePoint" />
            <mxPoint x="411.5431372549019" y="-794" as="targetPoint" />
          </mxGeometry>
        </mxCell>
        <mxCell id="Nh_Gx2AoVbf9bdhYKGmF-58" value="" style="endArrow=none;html=1;rounded=0;fontSize=41;entryX=0.678;entryY=0.385;entryDx=0;entryDy=0;entryPerimeter=0;strokeWidth=5;exitX=0.428;exitY=0.503;exitDx=0;exitDy=0;exitPerimeter=0;" parent="1" source="Nh_Gx2AoVbf9bdhYKGmF-52" target="Nh_Gx2AoVbf9bdhYKGmF-55" edge="1">
          <mxGeometry width="50" height="50" relative="1" as="geometry">
            <mxPoint x="880" y="-1819.2700000000002" as="sourcePoint" />
            <mxPoint x="590" y="-1850.0000000000002" as="targetPoint" />
            <Array as="points" />
          </mxGeometry>
        </mxCell>
        <mxCell id="Nh_Gx2AoVbf9bdhYKGmF-59" value="" style="endArrow=none;html=1;rounded=0;fontSize=41;strokeWidth=5;startArrow=none;" parent="1" source="Nh_Gx2AoVbf9bdhYKGmF-72" edge="1">
          <mxGeometry width="50" height="50" relative="1" as="geometry">
            <mxPoint x="890" y="-1809.2700000000002" as="sourcePoint" />
            <mxPoint x="840" y="-1820" as="targetPoint" />
            <Array as="points">
              <mxPoint x="840" y="-1820" />
            </Array>
          </mxGeometry>
        </mxCell>
        <mxCell id="Nh_Gx2AoVbf9bdhYKGmF-60" value="" style="endArrow=none;html=1;rounded=0;fontSize=41;strokeWidth=5;" parent="1" source="Nh_Gx2AoVbf9bdhYKGmF-53" target="Nh_Gx2AoVbf9bdhYKGmF-31" edge="1">
          <mxGeometry width="50" height="50" relative="1" as="geometry">
            <mxPoint x="900" y="-1799.2700000000002" as="sourcePoint" />
            <mxPoint x="610" y="-1830.0000000000002" as="targetPoint" />
            <Array as="points" />
          </mxGeometry>
        </mxCell>
        <mxCell id="Nh_Gx2AoVbf9bdhYKGmF-61" value="" style="endArrow=none;html=1;rounded=0;fontSize=41;entryX=0.604;entryY=0.492;entryDx=0;entryDy=0;entryPerimeter=0;strokeWidth=5;" parent="1" source="Nh_Gx2AoVbf9bdhYKGmF-31" target="Nh_Gx2AoVbf9bdhYKGmF-46" edge="1">
          <mxGeometry width="50" height="50" relative="1" as="geometry">
            <mxPoint x="910" y="-1789.2700000000002" as="sourcePoint" />
            <mxPoint x="620" y="-1820.0000000000002" as="targetPoint" />
            <Array as="points" />
          </mxGeometry>
        </mxCell>
        <mxCell id="Nh_Gx2AoVbf9bdhYKGmF-62" value="" style="endArrow=none;html=1;rounded=0;fontSize=41;strokeWidth=5;" parent="1" source="Nh_Gx2AoVbf9bdhYKGmF-51" target="Nh_Gx2AoVbf9bdhYKGmF-48" edge="1">
          <mxGeometry width="50" height="50" relative="1" as="geometry">
            <mxPoint x="955" y="-669.2700000000004" as="sourcePoint" />
            <mxPoint x="665" y="-700" as="targetPoint" />
            <Array as="points" />
          </mxGeometry>
        </mxCell>
        <mxCell id="Nh_Gx2AoVbf9bdhYKGmF-63" value="" style="endArrow=none;html=1;rounded=0;fontSize=41;entryX=0.458;entryY=0.783;entryDx=0;entryDy=0;entryPerimeter=0;strokeWidth=5;" parent="1" source="Nh_Gx2AoVbf9bdhYKGmF-50" target="Nh_Gx2AoVbf9bdhYKGmF-51" edge="1">
          <mxGeometry width="50" height="50" relative="1" as="geometry">
            <mxPoint x="985" y="-639.2700000000004" as="sourcePoint" />
            <mxPoint x="695" y="-670" as="targetPoint" />
            <Array as="points" />
          </mxGeometry>
        </mxCell>
        <mxCell id="Nh_Gx2AoVbf9bdhYKGmF-64" value="" style="endArrow=none;html=1;rounded=0;fontSize=41;entryX=0.825;entryY=1.136;entryDx=0;entryDy=0;entryPerimeter=0;strokeWidth=5;exitX=0.575;exitY=1.207;exitDx=0;exitDy=0;exitPerimeter=0;" parent="1" source="Nh_Gx2AoVbf9bdhYKGmF-55" target="Nh_Gx2AoVbf9bdhYKGmF-54" edge="1">
          <mxGeometry width="50" height="50" relative="1" as="geometry">
            <mxPoint x="995" y="-629.2700000000004" as="sourcePoint" />
            <mxPoint x="705" y="-660" as="targetPoint" />
            <Array as="points" />
          </mxGeometry>
        </mxCell>
        <mxCell id="Nh_Gx2AoVbf9bdhYKGmF-65" value="" style="endArrow=none;html=1;rounded=0;fontSize=41;strokeWidth=5;startArrow=none;exitX=0.552;exitY=0.627;exitDx=0;exitDy=0;exitPerimeter=0;" parent="1" source="Nh_Gx2AoVbf9bdhYKGmF-44" target="Nh_Gx2AoVbf9bdhYKGmF-45" edge="1">
          <mxGeometry width="50" height="50" relative="1" as="geometry">
            <mxPoint x="-200" y="-950" as="sourcePoint" />
            <mxPoint x="411.5431372549019" y="-794.0000000000005" as="targetPoint" />
          </mxGeometry>
        </mxCell>
        <mxCell id="Nh_Gx2AoVbf9bdhYKGmF-66" value="" style="endArrow=none;html=1;rounded=0;fontSize=41;strokeWidth=5;startArrow=none;" parent="1" source="Nh_Gx2AoVbf9bdhYKGmF-45" target="Nh_Gx2AoVbf9bdhYKGmF-43" edge="1">
          <mxGeometry width="50" height="50" relative="1" as="geometry">
            <mxPoint x="220" y="-1060" as="sourcePoint" />
            <mxPoint x="421.5431372549019" y="-784.0000000000005" as="targetPoint" />
          </mxGeometry>
        </mxCell>
        <mxCell id="Nh_Gx2AoVbf9bdhYKGmF-67" value="" style="endArrow=none;html=1;rounded=0;fontSize=41;strokeWidth=5;startArrow=none;entryX=0.484;entryY=0.57;entryDx=0;entryDy=0;entryPerimeter=0;" parent="1" source="Nh_Gx2AoVbf9bdhYKGmF-43" target="Nh_Gx2AoVbf9bdhYKGmF-70" edge="1">
          <mxGeometry width="50" height="50" relative="1" as="geometry">
            <mxPoint x="230" y="-1050" as="sourcePoint" />
            <mxPoint x="270" y="-1240" as="targetPoint" />
          </mxGeometry>
        </mxCell>
        <mxCell id="Nh_Gx2AoVbf9bdhYKGmF-68" value="" style="endArrow=none;html=1;rounded=0;fontSize=41;strokeWidth=5;startArrow=none;exitDx=0;exitDy=0;exitPerimeter=0;" parent="1" source="Nh_Gx2AoVbf9bdhYKGmF-70" edge="1">
          <mxGeometry width="50" height="50" relative="1" as="geometry">
            <mxPoint x="240" y="-1040" as="sourcePoint" />
            <mxPoint x="260" y="-1240" as="targetPoint" />
          </mxGeometry>
        </mxCell>
        <mxCell id="Nh_Gx2AoVbf9bdhYKGmF-69" value="" style="endArrow=none;html=1;rounded=0;fontSize=41;strokeWidth=5;startArrow=none;" parent="1" target="Nh_Gx2AoVbf9bdhYKGmF-70" edge="1">
          <mxGeometry width="50" height="50" relative="1" as="geometry">
            <mxPoint x="200" y="-1360" as="sourcePoint" />
            <mxPoint x="260" y="-1240" as="targetPoint" />
          </mxGeometry>
        </mxCell>
        <mxCell id="Nh_Gx2AoVbf9bdhYKGmF-70" value="" style="shape=waypoint;sketch=0;fillStyle=solid;size=6;pointerEvents=1;points=[];fillColor=none;resizable=0;rotatable=0;perimeter=centerPerimeter;snapToPoint=1;fontSize=41;strokeColor=#000000;strokeWidth=10;" parent="1" vertex="1">
          <mxGeometry x="236.65" y="-1270" width="40" height="40" as="geometry" />
        </mxCell>
        <mxCell id="Nh_Gx2AoVbf9bdhYKGmF-71" value="" style="endArrow=none;html=1;rounded=0;fontSize=41;strokeWidth=5;" parent="1" source="Nh_Gx2AoVbf9bdhYKGmF-46" target="Nh_Gx2AoVbf9bdhYKGmF-72" edge="1">
          <mxGeometry width="50" height="50" relative="1" as="geometry">
            <mxPoint x="940" y="-1700.73" as="sourcePoint" />
            <mxPoint x="850" y="-1790" as="targetPoint" />
            <Array as="points" />
          </mxGeometry>
        </mxCell>
        <mxCell id="Nh_Gx2AoVbf9bdhYKGmF-72" value="" style="shape=waypoint;sketch=0;fillStyle=solid;size=6;pointerEvents=1;points=[];fillColor=none;resizable=0;rotatable=0;perimeter=centerPerimeter;snapToPoint=1;fontSize=41;strokeColor=#000000;strokeWidth=10;" parent="1" vertex="1">
          <mxGeometry x="820" y="-1840" width="40" height="40" as="geometry" />
        </mxCell>
        <mxCell id="Nh_Gx2AoVbf9bdhYKGmF-74" value="" style="shape=waypoint;sketch=0;fillStyle=solid;size=6;pointerEvents=1;points=[];fillColor=none;resizable=0;rotatable=0;perimeter=centerPerimeter;snapToPoint=1;fontSize=41;strokeColor=#000000;strokeWidth=10;" parent="1" vertex="1">
          <mxGeometry x="780" y="-999.35" width="40" height="40" as="geometry" />
        </mxCell>
        <mxCell id="Nh_Gx2AoVbf9bdhYKGmF-75" value="" style="shape=waypoint;sketch=0;fillStyle=solid;size=6;pointerEvents=1;points=[];fillColor=none;resizable=0;rotatable=0;perimeter=centerPerimeter;snapToPoint=1;fontSize=41;strokeColor=#000000;strokeWidth=10;" parent="1" vertex="1">
          <mxGeometry x="940" y="-990" width="40" height="40" as="geometry" />
        </mxCell>
        <mxCell id="Nh_Gx2AoVbf9bdhYKGmF-76" value="" style="shape=waypoint;sketch=0;fillStyle=solid;size=6;pointerEvents=1;points=[];fillColor=none;resizable=0;rotatable=0;perimeter=centerPerimeter;snapToPoint=1;fontSize=41;strokeColor=#000000;strokeWidth=10;" parent="1" vertex="1">
          <mxGeometry x="160" y="-760" width="40" height="40" as="geometry" />
        </mxCell>
        <mxCell id="Nh_Gx2AoVbf9bdhYKGmF-77" value="" style="shape=waypoint;sketch=0;fillStyle=solid;size=6;pointerEvents=1;points=[];fillColor=none;resizable=0;rotatable=0;perimeter=centerPerimeter;snapToPoint=1;fontSize=41;strokeColor=#000000;strokeWidth=10;" parent="1" vertex="1">
          <mxGeometry x="730" y="-1110" width="40" height="40" as="geometry" />
        </mxCell>
        <mxCell id="Nh_Gx2AoVbf9bdhYKGmF-78" value="" style="shape=waypoint;sketch=0;fillStyle=solid;size=6;pointerEvents=1;points=[];fillColor=none;resizable=0;rotatable=0;perimeter=centerPerimeter;snapToPoint=1;fontSize=41;strokeColor=#000000;strokeWidth=10;" parent="1" vertex="1">
          <mxGeometry x="770" y="-1230" width="40" height="40" as="geometry" />
        </mxCell>
        <mxCell id="Nh_Gx2AoVbf9bdhYKGmF-79" value="" style="shape=waypoint;sketch=0;fillStyle=solid;size=6;pointerEvents=1;points=[];fillColor=none;resizable=0;rotatable=0;perimeter=centerPerimeter;snapToPoint=1;fontSize=41;strokeColor=#000000;strokeWidth=10;" parent="1" vertex="1">
          <mxGeometry x="403.45" y="-1370" width="40" height="40" as="geometry" />
        </mxCell>
        <mxCell id="Nh_Gx2AoVbf9bdhYKGmF-80" value="" style="shape=waypoint;sketch=0;fillStyle=solid;size=6;pointerEvents=1;points=[];fillColor=none;resizable=0;rotatable=0;perimeter=centerPerimeter;snapToPoint=1;fontSize=41;strokeColor=#000000;strokeWidth=10;" parent="1" vertex="1">
          <mxGeometry x="530" y="-1360" width="40" height="40" as="geometry" />
        </mxCell>
        <mxCell id="Nh_Gx2AoVbf9bdhYKGmF-81" value="" style="endArrow=none;html=1;rounded=0;fontSize=41;strokeWidth=5;exitX=0.667;exitY=0.559;exitDx=0;exitDy=0;exitPerimeter=0;entryX=0.625;entryY=0.617;entryDx=0;entryDy=0;entryPerimeter=0;" parent="1" source="Nh_Gx2AoVbf9bdhYKGmF-74" target="Nh_Gx2AoVbf9bdhYKGmF-49" edge="1">
          <mxGeometry width="50" height="50" relative="1" as="geometry">
            <mxPoint x="710" y="-840" as="sourcePoint" />
            <mxPoint x="488.4499999999998" y="-779.1148074489242" as="targetPoint" />
            <Array as="points" />
          </mxGeometry>
        </mxCell>
        <mxCell id="Nh_Gx2AoVbf9bdhYKGmF-82" value="" style="endArrow=none;html=1;rounded=0;fontSize=41;strokeWidth=5;exitX=0.375;exitY=0.45;exitDx=0;exitDy=0;exitPerimeter=0;" parent="1" source="Nh_Gx2AoVbf9bdhYKGmF-75" edge="1">
          <mxGeometry width="50" height="50" relative="1" as="geometry">
            <mxPoint x="720" y="-830" as="sourcePoint" />
            <mxPoint x="800" y="-980" as="targetPoint" />
            <Array as="points" />
          </mxGeometry>
        </mxCell>
        <mxCell id="Nh_Gx2AoVbf9bdhYKGmF-83" value="" style="endArrow=none;html=1;rounded=0;fontSize=41;strokeWidth=5;" parent="1" source="Nh_Gx2AoVbf9bdhYKGmF-77" target="Nh_Gx2AoVbf9bdhYKGmF-49" edge="1">
          <mxGeometry width="50" height="50" relative="1" as="geometry">
            <mxPoint x="730" y="-820" as="sourcePoint" />
            <mxPoint x="508.4499999999998" y="-759.1148074489242" as="targetPoint" />
            <Array as="points">
              <mxPoint x="700" y="-980" />
            </Array>
          </mxGeometry>
        </mxCell>
        <mxCell id="Nh_Gx2AoVbf9bdhYKGmF-84" value="" style="endArrow=none;html=1;rounded=0;fontSize=41;strokeWidth=5;exitX=0.458;exitY=0.7;exitDx=0;exitDy=0;exitPerimeter=0;entryX=0.5;entryY=0.45;entryDx=0;entryDy=0;entryPerimeter=0;" parent="1" source="Nh_Gx2AoVbf9bdhYKGmF-78" target="Nh_Gx2AoVbf9bdhYKGmF-77" edge="1">
          <mxGeometry width="50" height="50" relative="1" as="geometry">
            <mxPoint x="740" y="-810" as="sourcePoint" />
            <mxPoint x="518.4499999999998" y="-749.1148074489242" as="targetPoint" />
            <Array as="points" />
          </mxGeometry>
        </mxCell>
        <mxCell id="Nh_Gx2AoVbf9bdhYKGmF-85" value="" style="endArrow=none;html=1;rounded=0;fontSize=41;strokeWidth=5;exitX=0.375;exitY=0.7;exitDx=0;exitDy=0;exitPerimeter=0;" parent="1" source="Nh_Gx2AoVbf9bdhYKGmF-80" target="Nh_Gx2AoVbf9bdhYKGmF-78" edge="1">
          <mxGeometry width="50" height="50" relative="1" as="geometry">
            <mxPoint x="750" y="-800" as="sourcePoint" />
            <mxPoint x="528.4499999999998" y="-739.1148074489242" as="targetPoint" />
            <Array as="points">
              <mxPoint x="660" y="-1240" />
            </Array>
          </mxGeometry>
        </mxCell>
        <mxCell id="Nh_Gx2AoVbf9bdhYKGmF-86" value="" style="endArrow=none;html=1;rounded=0;fontSize=41;strokeWidth=5;exitX=0.58;exitY=0.742;exitDx=0;exitDy=0;exitPerimeter=0;" parent="1" source="Nh_Gx2AoVbf9bdhYKGmF-79" target="Nh_Gx2AoVbf9bdhYKGmF-80" edge="1">
          <mxGeometry width="50" height="50" relative="1" as="geometry">
            <mxPoint x="760" y="-790" as="sourcePoint" />
            <mxPoint x="590" y="-930" as="targetPoint" />
            <Array as="points" />
          </mxGeometry>
        </mxCell>
        <mxCell id="Nh_Gx2AoVbf9bdhYKGmF-91" value="" style="shape=waypoint;sketch=0;fillStyle=solid;size=6;pointerEvents=1;points=[];fillColor=none;resizable=0;rotatable=0;perimeter=centerPerimeter;snapToPoint=1;fontSize=41;strokeColor=#000000;strokeWidth=10;" parent="1" vertex="1">
          <mxGeometry x="210" y="-980" width="40" height="40" as="geometry" />
        </mxCell>
        <mxCell id="Nh_Gx2AoVbf9bdhYKGmF-92" value="" style="shape=waypoint;sketch=0;fillStyle=solid;size=6;pointerEvents=1;points=[];fillColor=none;resizable=0;rotatable=0;perimeter=centerPerimeter;snapToPoint=1;fontSize=41;strokeColor=#000000;strokeWidth=10;" parent="1" vertex="1">
          <mxGeometry x="670" y="-710" width="40" height="40" as="geometry" />
        </mxCell>
        <mxCell id="Nh_Gx2AoVbf9bdhYKGmF-93" value="" style="shape=waypoint;sketch=0;fillStyle=solid;size=6;pointerEvents=1;points=[];fillColor=none;resizable=0;rotatable=0;perimeter=centerPerimeter;snapToPoint=1;fontSize=41;strokeColor=#000000;strokeWidth=10;" parent="1" vertex="1">
          <mxGeometry x="680" y="-999.35" width="40" height="40" as="geometry" />
        </mxCell>
        <mxCell id="Nh_Gx2AoVbf9bdhYKGmF-94" value="" style="shape=waypoint;sketch=0;fillStyle=solid;size=6;pointerEvents=1;points=[];fillColor=none;resizable=0;rotatable=0;perimeter=centerPerimeter;snapToPoint=1;fontSize=41;strokeColor=#000000;strokeWidth=10;" parent="1" vertex="1">
          <mxGeometry x="640" y="-1260" width="40" height="40" as="geometry" />
        </mxCell>
        <mxCell id="-dQ5WDUZeD23r03v8ol0-3" value="" style="endArrow=none;html=1;rounded=0;fontSize=41;strokeWidth=5;entryX=0.481;entryY=0.625;entryDx=0;entryDy=0;entryPerimeter=0;strokeColor=#000000;" parent="1" edge="1">
          <mxGeometry width="50" height="50" relative="1" as="geometry">
            <mxPoint x="650" y="-1790" as="sourcePoint" />
            <mxPoint x="840" y="-1820" as="targetPoint" />
          </mxGeometry>
        </mxCell>
        <mxCell id="-dQ5WDUZeD23r03v8ol0-4" value="" style="endArrow=none;html=1;rounded=0;fontSize=41;strokeWidth=5;strokeColor=#000000;" parent="1" edge="1">
          <mxGeometry width="50" height="50" relative="1" as="geometry">
            <mxPoint x="460" y="-1690" as="sourcePoint" />
            <mxPoint x="650" y="-1790.0000000000002" as="targetPoint" />
          </mxGeometry>
        </mxCell>
        <mxCell id="-dQ5WDUZeD23r03v8ol0-5" value="" style="shape=waypoint;sketch=0;fillStyle=solid;size=6;pointerEvents=1;points=[];fillColor=none;resizable=0;rotatable=0;perimeter=centerPerimeter;snapToPoint=1;fontSize=41;strokeColor=#000000;strokeWidth=10;" parent="1" vertex="1">
          <mxGeometry x="630" y="-1810" width="40" height="40" as="geometry" />
        </mxCell>
        <mxCell id="-dQ5WDUZeD23r03v8ol0-6" value="" style="shape=waypoint;sketch=0;fillStyle=solid;size=6;pointerEvents=1;points=[];fillColor=none;resizable=0;rotatable=0;perimeter=centerPerimeter;snapToPoint=1;fontSize=41;strokeColor=#000000;strokeWidth=10;" parent="1" vertex="1">
          <mxGeometry x="440" y="-1710" width="40" height="40" as="geometry" />
        </mxCell>
      </root>
    </mxGraphModel>
  </diagram>
</mxfile>
